<svg xmlns="http://www.w3.org/2000/svg" xmlns:xlink="http://www.w3.org/1999/xlink" contentStyleType="text/css" data-diagram-type="SEQUENCE" height="444px" preserveAspectRatio="none" style="width:545px;height:444px;background:#FFFFFF;" version="1.1" viewBox="0 0 545 444" width="545px" zoomAndPan="magnify"><defs/><g><g><title>Test User</title><rect fill="#000000" fill-opacity="0.00000" height="282.1953" width="8" x="37.1543" y="81.2969"/><line style="stroke:#181818;stroke-width:0.5;stroke-dasharray:5,5;" x1="41" x2="41" y1="81.2969" y2="363.4922"/></g><g><title>DappsManager</title><rect fill="#000000" fill-opacity="0.00000" height="282.1953" width="8" x="268.6084" y="81.2969"/><line style="stroke:#181818;stroke-width:0.5;stroke-dasharray:5,5;" x1="271.7119" x2="271.7119" y1="81.2969" y2="363.4922"/></g><g><title>DRNK Token</title><rect fill="#000000" fill-opacity="0.00000" height="282.1953" width="8" x="405.7109" y="81.2969"/><line style="stroke:#181818;stroke-width:0.5;stroke-dasharray:5,5;" x1="409.0498" x2="409.0498" y1="81.2969" y2="363.4922"/></g><g><title>Dapp</title><rect fill="#000000" fill-opacity="0.00000" height="282.1953" width="8" x="509.73" y="81.2969"/><line style="stroke:#181818;stroke-width:0.5;stroke-dasharray:5,5;" x1="513.1636" x2="513.1636" y1="81.2969" y2="363.4922"/></g><g class="participant participant-head" data-participant="User"><text fill="#000000" font-family="sans-serif" font-size="14" lengthAdjust="spacing" textLength="66.3086" x="5" y="77.9951">Test User</text><ellipse cx="41.1543" cy="13.5" fill="#E2E2F0" rx="8" ry="8" style="stroke:#181818;stroke-width:0.5;"/><path d="M41.1543,21.5 L41.1543,48.5 M28.1543,29.5 L54.1543,29.5 M41.1543,48.5 L28.1543,63.5 M41.1543,48.5 L54.1543,63.5" fill="none" style="stroke:#181818;stroke-width:0.5;"/></g><g class="participant participant-tail" data-participant="User"><text fill="#000000" font-family="sans-serif" font-size="14" lengthAdjust="spacing" textLength="66.3086" x="5" y="375.4873">Test User</text><ellipse cx="41.1543" cy="387.2891" fill="#E2E2F0" rx="8" ry="8" style="stroke:#181818;stroke-width:0.5;"/><path d="M41.1543,395.2891 L41.1543,422.2891 M28.1543,403.2891 L54.1543,403.2891 M41.1543,422.2891 L28.1543,437.2891 M41.1543,422.2891 L54.1543,437.2891" fill="none" style="stroke:#181818;stroke-width:0.5;"/></g><g class="participant participant-head" data-participant="DappsMgr"><rect fill="#E2E2F0" height="30.2969" rx="2.5" ry="2.5" style="stroke:#181818;stroke-width:0.5;" width="119.793" x="212.7119" y="50"/><text fill="#000000" font-family="sans-serif" font-size="14" lengthAdjust="spacing" textLength="105.793" x="219.7119" y="69.9951">DappsManager</text></g><g class="participant participant-tail" data-participant="DappsMgr"><rect fill="#E2E2F0" height="30.2969" rx="2.5" ry="2.5" style="stroke:#181818;stroke-width:0.5;" width="119.793" x="212.7119" y="362.4922"/><text fill="#000000" font-family="sans-serif" font-size="14" lengthAdjust="spacing" textLength="105.793" x="219.7119" y="382.4873">DappsManager</text></g><g class="participant participant-head" data-participant="DRNK"><rect fill="#E2E2F0" height="30.2969" rx="2.5" ry="2.5" style="stroke:#181818;stroke-width:0.5;" width="101.3223" x="359.0498" y="50"/><text fill="#000000" font-family="sans-serif" font-size="14" lengthAdjust="spacing" textLength="87.3223" x="366.0498" y="69.9951">DRNK Token</text></g><g class="participant participant-tail" data-participant="DRNK"><rect fill="#E2E2F0" height="30.2969" rx="2.5" ry="2.5" style="stroke:#181818;stroke-width:0.5;" width="101.3223" x="359.0498" y="362.4922"/><text fill="#000000" font-family="sans-serif" font-size="14" lengthAdjust="spacing" textLength="87.3223" x="366.0498" y="382.4873">DRNK Token</text></g><g class="participant participant-head" data-participant="Dapp"><rect fill="#E2E2F0" height="30.2969" rx="2.5" ry="2.5" style="stroke:#181818;stroke-width:0.5;" width="51.1328" x="488.1636" y="50"/><text fill="#000000" font-family="sans-serif" font-size="14" lengthAdjust="spacing" textLength="37.1328" x="495.1636" y="69.9951">Dapp</text></g><g class="participant participant-tail" data-participant="Dapp"><rect fill="#E2E2F0" height="30.2969" rx="2.5" ry="2.5" style="stroke:#181818;stroke-width:0.5;" width="51.1328" x="488.1636" y="362.4922"/><text fill="#000000" font-family="sans-serif" font-size="14" lengthAdjust="spacing" textLength="37.1328" x="495.1636" y="382.4873">Dapp</text></g><g class="message" data-participant-1="User" data-participant-2="DappsMgr"><polygon fill="#181818" points="260.6084,108.4297,270.6084,112.4297,260.6084,116.4297,264.6084,112.4297" style="stroke:#181818;stroke-width:1;"/><line style="stroke:#181818;stroke-width:1;" x1="41.1543" x2="266.6084" y1="112.4297" y2="112.4297"/><text fill="#000000" font-family="sans-serif" font-size="13" lengthAdjust="spacing" textLength="156.0317" x="48.1543" y="107.3638">demoAirdrop(testUsers)</text></g><g class="message" data-participant-1="DappsMgr" data-participant-2="DRNK"><polygon fill="#181818" points="397.7109,137.5625,407.7109,141.5625,397.7109,145.5625,401.7109,141.5625" style="stroke:#181818;stroke-width:1;"/><line style="stroke:#181818;stroke-width:1;" x1="272.6084" x2="403.7109" y1="141.5625" y2="141.5625"/><text fill="#000000" font-family="sans-serif" font-size="13" lengthAdjust="spacing" textLength="113.1025" x="279.6084" y="136.4966">Mint 1000 tokens</text></g><g class="message" data-participant-1="DRNK" data-participant-2="User"><polygon fill="#181818" points="52.1543,166.6953,42.1543,170.6953,52.1543,174.6953,48.1543,170.6953" style="stroke:#181818;stroke-width:1;"/><line style="stroke:#181818;stroke-width:1;" x1="46.1543" x2="408.7109" y1="170.6953" y2="170.6953"/><text fill="#000000" font-family="sans-serif" font-size="13" lengthAdjust="spacing" textLength="101.9053" x="58.1543" y="165.6294">Transfer tokens</text></g><g class="message" data-participant-1="User" data-participant-2="DappsMgr"><polygon fill="#181818" points="260.6084,195.8281,270.6084,199.8281,260.6084,203.8281,264.6084,199.8281" style="stroke:#181818;stroke-width:1;"/><line style="stroke:#181818;stroke-width:1;" x1="41.1543" x2="266.6084" y1="199.8281" y2="199.8281"/><text fill="#000000" font-family="sans-serif" font-size="13" lengthAdjust="spacing" textLength="207.4541" x="48.1543" y="194.7622">voteDapp(dapp1, amount, rate)</text></g><g class="message" data-participant-1="DappsMgr" data-participant-2="Dapp"><polygon fill="#181818" points="501.73,224.9609,511.73,228.9609,501.73,232.9609,505.73,228.9609" style="stroke:#181818;stroke-width:1;"/><line style="stroke:#181818;stroke-width:1;" x1="272.6084" x2="507.73" y1="228.9609" y2="228.9609"/><text fill="#000000" font-family="sans-serif" font-size="13" lengthAdjust="spacing" textLength="217.1216" x="279.6084" y="223.895">Store vote with SRWV calculation</text></g><g class="message" data-participant-1="DappsMgr" data-participant-2="Dapp"><polygon fill="#181818" points="501.73,254.0938,511.73,258.0938,501.73,262.0938,505.73,258.0938" style="stroke:#181818;stroke-width:1;"/><line style="stroke:#181818;stroke-width:1;" x1="272.6084" x2="507.73" y1="258.0938" y2="258.0938"/><text fill="#000000" font-family="sans-serif" font-size="13" lengthAdjust="spacing" textLength="142.0352" x="279.6084" y="253.0278">Update vote statistics</text></g><g class="message" data-participant-1="User" data-participant-2="DappsMgr"><polygon fill="#181818" points="260.6084,283.2266,270.6084,287.2266,260.6084,291.2266,264.6084,287.2266" style="stroke:#181818;stroke-width:1;"/><line style="stroke:#181818;stroke-width:1;" x1="41.1543" x2="266.6084" y1="287.2266" y2="287.2266"/><text fill="#000000" font-family="sans-serif" font-size="13" lengthAdjust="spacing" textLength="73.3027" x="48.1543" y="282.1606">burn(1000)</text></g><g class="message" data-participant-1="DappsMgr" data-participant-2="DRNK"><polygon fill="#181818" points="397.7109,312.3594,407.7109,316.3594,397.7109,320.3594,401.7109,316.3594" style="stroke:#181818;stroke-width:1;"/><line style="stroke:#181818;stroke-width:1;" x1="272.6084" x2="403.7109" y1="316.3594" y2="316.3594"/><text fill="#000000" font-family="sans-serif" font-size="13" lengthAdjust="spacing" textLength="78.4634" x="279.6084" y="311.2935">Burn tokens</text></g><g class="message" data-participant-1="DRNK" data-participant-2="User"><polygon fill="#181818" points="52.1543,341.4922,42.1543,345.4922,52.1543,349.4922,48.1543,345.4922" style="stroke:#181818;stroke-width:1;"/><line style="stroke:#181818;stroke-width:1;" x1="46.1543" x2="408.7109" y1="345.4922" y2="345.4922"/><text fill="#000000" font-family="sans-serif" font-size="13" lengthAdjust="spacing" textLength="103.981" x="58.1543" y="340.4263">Reduce balance</text></g><!--SRC=[TL1BJyCm3BxdLrWz5Mb8tRK7910tD0vT1sSlCIEYIwBOtVu-JZlrCCh5ykDxs4OhCKFL4miSc785o5DY4cRnrYSC0jKhfiGx37YwGUR6wHxMlRz17tyep20j_-eiV6EA4Jm-BMhGWgDpVFRPvPXgqQqAX1_CWYZeujB2pglYjcaQaEB8PkhhV59jeSyO-4lJstZDxHA5Ibax3TiDu3cEGJQGKUZEL7CbxFLTDD7WwkKRzjtd1rWSx3YW-1ZME8VaL6uciIYCzI7h-np77Efoq-h5BphzvzYEt6W9ZZXWiFGB]--></g></svg>