<svg xmlns="http://www.w3.org/2000/svg" xmlns:xlink="http://www.w3.org/1999/xlink" contentStyleType="text/css" data-diagram-type="SEQUENCE" height="619px" preserveAspectRatio="none" style="width:697px;height:619px;background:#FFFFFF;" version="1.1" viewBox="0 0 697 619" width="697px" zoomAndPan="magnify"><defs/><g><g><title>Test User</title><rect fill="#000000" fill-opacity="0.00000" height="456.9922" width="8" x="37.1543" y="81.2969"/><line style="stroke:#181818;stroke-width:0.5;stroke-dasharray:5,5;" x1="41" x2="41" y1="81.2969" y2="538.2891"/></g><g><title>Dapp Owner</title><rect fill="#000000" fill-opacity="0.00000" height="456.9922" width="8" x="129.9561" y="81.2969"/><line style="stroke:#181818;stroke-width:0.5;stroke-dasharray:5,5;" x1="133.3086" x2="133.3086" y1="81.2969" y2="538.2891"/></g><g><title>DappsManager</title><rect fill="#000000" fill-opacity="0.00000" height="456.9922" width="8" x="317.2114" y="81.2969"/><line style="stroke:#181818;stroke-width:0.5;stroke-dasharray:5,5;" x1="320.3149" x2="320.3149" y1="81.2969" y2="538.2891"/></g><g><title>DRNK Token</title><rect fill="#000000" fill-opacity="0.00000" height="456.9922" width="8" x="576.1699" y="81.2969"/><line style="stroke:#181818;stroke-width:0.5;stroke-dasharray:5,5;" x1="579.5088" x2="579.5088" y1="81.2969" y2="538.2891"/></g><g><title>Dapp</title><rect fill="#000000" fill-opacity="0.00000" height="456.9922" width="8" x="662.3975" y="81.2969"/><line style="stroke:#181818;stroke-width:0.5;stroke-dasharray:5,5;" x1="665.8311" x2="665.8311" y1="81.2969" y2="538.2891"/></g><g class="participant participant-head" data-participant="User"><text fill="#000000" font-family="sans-serif" font-size="14" lengthAdjust="spacing" textLength="66.3086" x="5" y="77.9951">Test User</text><ellipse cx="41.1543" cy="13.5" fill="#E2E2F0" rx="8" ry="8" style="stroke:#181818;stroke-width:0.5;"/><path d="M41.1543,21.5 L41.1543,48.5 M28.1543,29.5 L54.1543,29.5 M41.1543,48.5 L28.1543,63.5 M41.1543,48.5 L54.1543,63.5" fill="none" style="stroke:#181818;stroke-width:0.5;"/></g><g class="participant participant-tail" data-participant="User"><text fill="#000000" font-family="sans-serif" font-size="14" lengthAdjust="spacing" textLength="66.3086" x="5" y="550.2842">Test User</text><ellipse cx="41.1543" cy="562.0859" fill="#E2E2F0" rx="8" ry="8" style="stroke:#181818;stroke-width:0.5;"/><path d="M41.1543,570.0859 L41.1543,597.0859 M28.1543,578.0859 L54.1543,578.0859 M41.1543,597.0859 L28.1543,612.0859 M41.1543,597.0859 L54.1543,612.0859" fill="none" style="stroke:#181818;stroke-width:0.5;"/></g><g class="participant participant-head" data-participant="DappOwner"><text fill="#000000" font-family="sans-serif" font-size="14" lengthAdjust="spacing" textLength="87.2949" x="87.3086" y="77.9951">Dapp Owner</text><ellipse cx="133.9561" cy="13.5" fill="#E2E2F0" rx="8" ry="8" style="stroke:#181818;stroke-width:0.5;"/><path d="M133.9561,21.5 L133.9561,48.5 M120.9561,29.5 L146.9561,29.5 M133.9561,48.5 L120.9561,63.5 M133.9561,48.5 L146.9561,63.5" fill="none" style="stroke:#181818;stroke-width:0.5;"/></g><g class="participant participant-tail" data-participant="DappOwner"><text fill="#000000" font-family="sans-serif" font-size="14" lengthAdjust="spacing" textLength="87.2949" x="87.3086" y="550.2842">Dapp Owner</text><ellipse cx="133.9561" cy="562.0859" fill="#E2E2F0" rx="8" ry="8" style="stroke:#181818;stroke-width:0.5;"/><path d="M133.9561,570.0859 L133.9561,597.0859 M120.9561,578.0859 L146.9561,578.0859 M133.9561,597.0859 L120.9561,612.0859 M133.9561,597.0859 L146.9561,612.0859" fill="none" style="stroke:#181818;stroke-width:0.5;"/></g><g class="participant participant-head" data-participant="DappsMgr"><rect fill="#E2E2F0" height="30.2969" rx="2.5" ry="2.5" style="stroke:#181818;stroke-width:0.5;" width="119.793" x="261.3149" y="50"/><text fill="#000000" font-family="sans-serif" font-size="14" lengthAdjust="spacing" textLength="105.793" x="268.3149" y="69.9951">DappsManager</text></g><g class="participant participant-tail" data-participant="DappsMgr"><rect fill="#E2E2F0" height="30.2969" rx="2.5" ry="2.5" style="stroke:#181818;stroke-width:0.5;" width="119.793" x="261.3149" y="537.2891"/><text fill="#000000" font-family="sans-serif" font-size="14" lengthAdjust="spacing" textLength="105.793" x="268.3149" y="557.2842">DappsManager</text></g><g class="participant participant-head" data-participant="DRNK"><rect fill="#E2E2F0" height="30.2969" rx="2.5" ry="2.5" style="stroke:#181818;stroke-width:0.5;" width="101.3223" x="529.5088" y="50"/><text fill="#000000" font-family="sans-serif" font-size="14" lengthAdjust="spacing" textLength="87.3223" x="536.5088" y="69.9951">DRNK Token</text></g><g class="participant participant-tail" data-participant="DRNK"><rect fill="#E2E2F0" height="30.2969" rx="2.5" ry="2.5" style="stroke:#181818;stroke-width:0.5;" width="101.3223" x="529.5088" y="537.2891"/><text fill="#000000" font-family="sans-serif" font-size="14" lengthAdjust="spacing" textLength="87.3223" x="536.5088" y="557.2842">DRNK Token</text></g><g class="participant participant-head" data-participant="Dapp"><rect fill="#E2E2F0" height="30.2969" rx="2.5" ry="2.5" style="stroke:#181818;stroke-width:0.5;" width="51.1328" x="640.8311" y="50"/><text fill="#000000" font-family="sans-serif" font-size="14" lengthAdjust="spacing" textLength="37.1328" x="647.8311" y="69.9951">Dapp</text></g><g class="participant participant-tail" data-participant="Dapp"><rect fill="#E2E2F0" height="30.2969" rx="2.5" ry="2.5" style="stroke:#181818;stroke-width:0.5;" width="51.1328" x="640.8311" y="537.2891"/><text fill="#000000" font-family="sans-serif" font-size="14" lengthAdjust="spacing" textLength="37.1328" x="647.8311" y="557.2842">Dapp</text></g><g class="message" data-participant-1="User" data-participant-2="DappsMgr"><polygon fill="#181818" points="309.2114,108.4297,319.2114,112.4297,309.2114,116.4297,313.2114,112.4297" style="stroke:#181818;stroke-width:1;"/><line style="stroke:#181818;stroke-width:1;" x1="41.1543" x2="315.2114" y1="112.4297" y2="112.4297"/><text fill="#000000" font-family="sans-serif" font-size="13" lengthAdjust="spacing" textLength="156.0317" x="48.1543" y="107.3638">demoAirdrop(testUsers)</text></g><g class="message" data-participant-1="DappsMgr" data-participant-2="DRNK"><polygon fill="#181818" points="568.1699,137.5625,578.1699,141.5625,568.1699,145.5625,572.1699,141.5625" style="stroke:#181818;stroke-width:1;"/><line style="stroke:#181818;stroke-width:1;" x1="321.2114" x2="574.1699" y1="141.5625" y2="141.5625"/><text fill="#000000" font-family="sans-serif" font-size="13" lengthAdjust="spacing" textLength="113.1025" x="328.2114" y="136.4966">Mint 1000 tokens</text></g><g class="message" data-participant-1="DRNK" data-participant-2="User"><polygon fill="#181818" points="52.1543,166.6953,42.1543,170.6953,52.1543,174.6953,48.1543,170.6953" style="stroke:#181818;stroke-width:1;"/><line style="stroke:#181818;stroke-width:1;" x1="46.1543" x2="579.1699" y1="170.6953" y2="170.6953"/><text fill="#000000" font-family="sans-serif" font-size="13" lengthAdjust="spacing" textLength="101.9053" x="58.1543" y="165.6294">Transfer tokens</text></g><g class="message" data-participant-1="DRNK" data-participant-2="DappOwner"><polygon fill="#181818" points="144.9561,195.8281,134.9561,199.8281,144.9561,203.8281,140.9561,199.8281" style="stroke:#181818;stroke-width:1;"/><line style="stroke:#181818;stroke-width:1;" x1="138.9561" x2="579.1699" y1="199.8281" y2="199.8281"/><text fill="#000000" font-family="sans-serif" font-size="13" lengthAdjust="spacing" textLength="101.9053" x="150.9561" y="194.7622">Transfer tokens</text></g><g class="message" data-participant-1="DappOwner" data-participant-2="DappsMgr"><polygon fill="#181818" points="309.2114,224.9609,319.2114,228.9609,309.2114,232.9609,313.2114,228.9609" style="stroke:#181818;stroke-width:1;"/><line style="stroke:#181818;stroke-width:1;" x1="133.9561" x2="315.2114" y1="228.9609" y2="228.9609"/><text fill="#000000" font-family="sans-serif" font-size="13" lengthAdjust="spacing" textLength="159.1865" x="140.9561" y="223.895">registerDapp(name, cid)</text></g><g class="message" data-participant-1="DappsMgr" data-participant-2="DRNK"><polygon fill="#181818" points="568.1699,254.0938,578.1699,258.0938,568.1699,262.0938,572.1699,258.0938" style="stroke:#181818;stroke-width:1;"/><line style="stroke:#181818;stroke-width:1;" x1="321.2114" x2="574.1699" y1="258.0938" y2="258.0938"/><text fill="#000000" font-family="sans-serif" font-size="13" lengthAdjust="spacing" textLength="234.9585" x="328.2114" y="253.0278">Transfer listingFee from dappOwner</text></g><g class="message" data-participant-1="DRNK" data-participant-2="DappOwner"><polygon fill="#181818" points="144.9561,283.2266,134.9561,287.2266,144.9561,291.2266,140.9561,287.2266" style="stroke:#181818;stroke-width:1;"/><line style="stroke:#181818;stroke-width:1;" x1="138.9561" x2="579.1699" y1="287.2266" y2="287.2266"/><text fill="#000000" font-family="sans-serif" font-size="13" lengthAdjust="spacing" textLength="113.5469" x="150.9561" y="282.1606">Deduct listingFee</text></g><g class="message" data-participant-1="User" data-participant-2="DappsMgr"><polygon fill="#181818" points="309.2114,312.3594,319.2114,316.3594,309.2114,320.3594,313.2114,316.3594" style="stroke:#181818;stroke-width:1;"/><line style="stroke:#181818;stroke-width:1;" x1="41.1543" x2="315.2114" y1="316.3594" y2="316.3594"/><text fill="#000000" font-family="sans-serif" font-size="13" lengthAdjust="spacing" textLength="207.4541" x="48.1543" y="311.2935">voteDapp(dapp1, amount, rate)</text></g><g class="message" data-participant-1="DappsMgr" data-participant-2="Dapp"><polygon fill="#181818" points="654.3975,341.4922,664.3975,345.4922,654.3975,349.4922,658.3975,345.4922" style="stroke:#181818;stroke-width:1;"/><line style="stroke:#181818;stroke-width:1;" x1="321.2114" x2="660.3975" y1="345.4922" y2="345.4922"/><text fill="#000000" font-family="sans-serif" font-size="13" lengthAdjust="spacing" textLength="217.1216" x="328.2114" y="340.4263">Store vote with SRWV calculation</text></g><g class="message" data-participant-1="DappsMgr" data-participant-2="Dapp"><polygon fill="#181818" points="654.3975,370.625,664.3975,374.625,654.3975,378.625,658.3975,374.625" style="stroke:#181818;stroke-width:1;"/><line style="stroke:#181818;stroke-width:1;" x1="321.2114" x2="660.3975" y1="374.625" y2="374.625"/><text fill="#000000" font-family="sans-serif" font-size="13" lengthAdjust="spacing" textLength="142.0352" x="328.2114" y="369.5591">Update vote statistics</text></g><g class="message" data-participant-1="DappOwner" data-participant-2="DappsMgr"><polygon fill="#181818" points="309.2114,399.7578,319.2114,403.7578,309.2114,407.7578,313.2114,403.7578" style="stroke:#181818;stroke-width:1;"/><line style="stroke:#181818;stroke-width:1;" x1="133.9561" x2="315.2114" y1="403.7578" y2="403.7578"/><text fill="#000000" font-family="sans-serif" font-size="13" lengthAdjust="spacing" textLength="163.2554" x="140.9561" y="398.6919">cashOut(dapp1, amount)</text></g><g class="message" data-participant-1="DappsMgr" data-participant-2="DRNK"><polygon fill="#181818" points="568.1699,428.8906,578.1699,432.8906,568.1699,436.8906,572.1699,432.8906" style="stroke:#181818;stroke-width:1;"/><line style="stroke:#181818;stroke-width:1;" x1="321.2114" x2="574.1699" y1="432.8906" y2="432.8906"/><text fill="#000000" font-family="sans-serif" font-size="13" lengthAdjust="spacing" textLength="180.0005" x="328.2114" y="427.8247">Transfer amount from dapp</text></g><g class="message" data-participant-1="DRNK" data-participant-2="DappOwner"><polygon fill="#181818" points="144.9561,458.0234,134.9561,462.0234,144.9561,466.0234,140.9561,462.0234" style="stroke:#181818;stroke-width:1;"/><line style="stroke:#181818;stroke-width:1;" x1="138.9561" x2="579.1699" y1="462.0234" y2="462.0234"/><text fill="#000000" font-family="sans-serif" font-size="13" lengthAdjust="spacing" textLength="210.6787" x="150.9561" y="456.9575">Transfer net amount (after fees)</text></g><g class="message" data-participant-1="DappsMgr" data-participant-2="DRNK"><polygon fill="#181818" points="568.1699,487.1563,578.1699,491.1563,568.1699,495.1563,572.1699,491.1563" style="stroke:#181818;stroke-width:1;"/><line style="stroke:#181818;stroke-width:1;" x1="321.2114" x2="574.1699" y1="491.1563" y2="491.1563"/><text fill="#000000" font-family="sans-serif" font-size="13" lengthAdjust="spacing" textLength="152.2803" x="328.2114" y="486.0903">Burn portion of amount</text></g><g class="message" data-participant-1="DRNK" data-participant-2="DappOwner"><polygon fill="#181818" points="144.9561,516.2891,134.9561,520.2891,144.9561,524.2891,140.9561,520.2891" style="stroke:#181818;stroke-width:1;"/><line style="stroke:#181818;stroke-width:1;" x1="138.9561" x2="579.1699" y1="520.2891" y2="520.2891"/><text fill="#000000" font-family="sans-serif" font-size="13" lengthAdjust="spacing" textLength="129.4795" x="150.9561" y="515.2231">Reduce total supply</text></g><!--SRC=[VLBBJiCm4BpxArOz5Qb8xJK795351PLAVS1vvMnIYyIsl1ig_XuxAUa3mythdPaTpngrk02J7R70dYbC0Ba_A1mwI_GUraTxQgMohvJ784ORZrO65A_GOds1urLz2zkyli3EVP0TGB7yhJFobKf6uFvXL8C2IchTembbS7ugqNM2y9qQ4GcTfXImCb5nCP_FGT94LlrzxFUg1Um2MgxYyQOzFZ63KUhSlVOLg3Oi5DBLr69BCz2cp1eRHPl8CBP-9e8gk1RACToSboMLdPOBKZQVJoVKUqXYYnbWwpehCmWeTECcRRQ0RLmpzJGu6Zd0TlF-1XeRtJKenjaSP-_BA3UGM28iMjByTpWQ-R3kvDhJ_zaCc7Ck_w_7almmfbZ5DK15bFyMJrsmu5r8RmDNdMXP-KrAdEBk1HlWpllcwni0]--></g></svg>