<svg xmlns="http://www.w3.org/2000/svg" xmlns:xlink="http://www.w3.org/1999/xlink" contentStyleType="text/css" data-diagram-type="DESCRIPTION" height="200px" preserveAspectRatio="none" style="width:1778px;height:200px;background:#FFFFFF;" version="1.1" viewBox="0 0 1778 200" width="1778px" zoomAndPan="magnify"><defs/><g><!--cluster DappRank System--><g class="cluster" data-entity="DappRank System" data-source-line="6" data-uid="ent0005" id="cluster_DappRank System"><rect fill="none" height="87.75" rx="2.5" ry="2.5" style="stroke:#181818;stroke-width:1;" width="1765" x="7" y="106.8"/><text fill="#000000" font-family="sans-serif" font-size="14" font-weight="bold" lengthAdjust="spacing" textLength="143.8076" x="817.5962" y="121.7951">DappRank System</text></g><!--entity Register as Fan--><g class="entity" data-entity="Register as Fan" data-source-line="7" data-uid="ent0006" id="entity_Register as Fan"><ellipse cx="94.0045" cy="160.1829" fill="#F1F1F1" rx="70.8645" ry="16.5729" style="stroke:#181818;stroke-width:0.5;"/><text fill="#000000" font-family="sans-serif" font-size="14" lengthAdjust="spacing" textLength="108.5479" x="39.7305" y="164.8313">Register as Fan</text></g><!--entity Vote on Dapps--><g class="entity" data-entity="Vote on Dapps" data-source-line="8" data-uid="ent0008" id="entity_Vote on Dapps"><ellipse cx="269.0014" cy="160.1843" fill="#F1F1F1" rx="68.6714" ry="16.1343" style="stroke:#181818;stroke-width:0.5;"/><text fill="#000000" font-family="sans-serif" font-size="14" lengthAdjust="spacing" textLength="103.0107" x="217.496" y="164.8327">Vote on Dapps</text></g><!--entity Burn Tokens--><g class="entity" data-entity="Burn Tokens" data-source-line="9" data-uid="ent0010" id="entity_Burn Tokens"><ellipse cx="434.9954" cy="160.1811" fill="#F1F1F1" rx="62.8054" ry="14.9611" style="stroke:#181818;stroke-width:0.5;"/><text fill="#000000" font-family="sans-serif" font-size="14" lengthAdjust="spacing" textLength="87.5615" x="391.2146" y="164.8295">Burn Tokens</text></g><!--entity View Rankings--><g class="entity" data-entity="View Rankings" data-source-line="10" data-uid="ent0012" id="entity_View Rankings"><ellipse cx="600.9982" cy="160.1816" fill="#F1F1F1" rx="68.3582" ry="16.0716" style="stroke:#181818;stroke-width:0.5;"/><text fill="#000000" font-family="sans-serif" font-size="14" lengthAdjust="spacing" textLength="102.2109" x="549.8927" y="164.8301">View Rankings</text></g><!--entity Register Dapp--><g class="entity" data-entity="Register Dapp" data-source-line="12" data-uid="ent0014" id="entity_Register Dapp"><ellipse cx="772.0003" cy="160.1781" fill="#F1F1F1" rx="67.4403" ry="15.8881" style="stroke:#181818;stroke-width:0.5;"/><text fill="#000000" font-family="sans-serif" font-size="14" lengthAdjust="spacing" textLength="99.8525" x="722.0741" y="164.8265">Register Dapp</text></g><!--entity Cash Out Rewards--><g class="entity" data-entity="Cash Out Rewards" data-source-line="13" data-uid="ent0016" id="entity_Cash Out Rewards"><ellipse cx="953.9967" cy="160.1773" fill="#F1F1F1" rx="79.3367" ry="18.2673" style="stroke:#181818;stroke-width:0.5;"/><text fill="#000000" font-family="sans-serif" font-size="14" lengthAdjust="spacing" textLength="129.1104" x="889.4416" y="164.8258">Cash Out Rewards</text></g><!--entity View Dapp Stats--><g class="entity" data-entity="View Dapp Stats" data-source-line="14" data-uid="ent0018" id="entity_View Dapp Stats"><ellipse cx="1142.0043" cy="160.1789" fill="#F1F1F1" rx="73.5943" ry="17.1189" style="stroke:#181818;stroke-width:0.5;"/><text fill="#000000" font-family="sans-serif" font-size="14" lengthAdjust="spacing" textLength="115.3018" x="1084.3534" y="164.8273">View Dapp Stats</text></g><!--entity Manage Roles--><g class="entity" data-entity="Manage Roles" data-source-line="16" data-uid="ent0020" id="entity_Manage Roles"><ellipse cx="1317.0032" cy="160.1766" fill="#F1F1F1" rx="66.7832" ry="15.7566" style="stroke:#181818;stroke-width:0.5;"/><text fill="#000000" font-family="sans-serif" font-size="14" lengthAdjust="spacing" textLength="98.1504" x="1267.928" y="164.8251">Manage Roles</text></g><!--entity Set Parameters--><g class="entity" data-entity="Set Parameters" data-source-line="17" data-uid="ent0022" id="entity_Set Parameters"><ellipse cx="1489.9951" cy="160.175" fill="#F1F1F1" rx="70.7251" ry="16.545" style="stroke:#181818;stroke-width:0.5;"/><text fill="#000000" font-family="sans-serif" font-size="14" lengthAdjust="spacing" textLength="108.1992" x="1435.8955" y="164.8235">Set Parameters</text></g><!--entity View System Stats--><g class="entity" data-entity="View System Stats" data-source-line="18" data-uid="ent0024" id="entity_View System Stats"><ellipse cx="1676.0022" cy="160.1844" fill="#F1F1F1" rx="79.8722" ry="18.3744" style="stroke:#181818;stroke-width:0.5;"/><text fill="#000000" font-family="sans-serif" font-size="14" lengthAdjust="spacing" textLength="130.375" x="1610.8147" y="164.8329">View System Stats</text></g><!--entity User--><g class="entity" data-entity="User" data-source-line="2" data-uid="ent0002" id="entity_User"><ellipse cx="351.9951" cy="14" fill="#F1F1F1" rx="8" ry="8" style="stroke:#181818;stroke-width:0.5;"/><path d="M351.9951,22 L351.9951,49 M338.9951,30 L364.9951,30 M351.9951,49 L338.9951,64 M351.9951,49 L364.9951,64" fill="none" style="stroke:#181818;stroke-width:0.5;"/><text fill="#000000" font-family="sans-serif" font-size="14" lengthAdjust="spacing" textLength="31.9102" x="336.04" y="78.4951">User</text></g><!--entity DappOwner--><g class="entity" data-entity="DappOwner" data-source-line="3" data-uid="ent0003" id="entity_DappOwner"><ellipse cx="953.9975" cy="14" fill="#F1F1F1" rx="8" ry="8" style="stroke:#181818;stroke-width:0.5;"/><path d="M953.9975,22 L953.9975,49 M940.9975,30 L966.9975,30 M953.9975,49 L940.9975,64 M953.9975,49 L966.9975,64" fill="none" style="stroke:#181818;stroke-width:0.5;"/><text fill="#000000" font-family="sans-serif" font-size="14" lengthAdjust="spacing" textLength="87.2949" x="910.35" y="78.4951">Dapp Owner</text></g><!--entity Admin--><g class="entity" data-entity="Admin" data-source-line="4" data-uid="ent0004" id="entity_Admin"><ellipse cx="1489.999" cy="14" fill="#F1F1F1" rx="8" ry="8" style="stroke:#181818;stroke-width:0.5;"/><path d="M1489.999,22 L1489.999,49 M1476.999,30 L1502.999,30 M1489.999,49 L1476.999,64 M1489.999,49 L1502.999,64" fill="none" style="stroke:#181818;stroke-width:0.5;"/><text fill="#000000" font-family="sans-serif" font-size="14" lengthAdjust="spacing" textLength="80.958" x="1449.52" y="78.4951">DAO/Admin</text></g><!--link User to Register as Fan--><g class="link" data-entity-1="User" data-entity-2="Register as Fan" data-source-line="7" data-uid="lnk7" id="link_User_Register as Fan"><path d="M335.57,48.26 C304.66,55.4 236.19,72.91 183,98.8 C157.32,111.31 135.297,126.7733 117.917,140.1333" fill="none" id="User-to-Register as Fan" style="stroke:#181818;stroke-width:1;"/><polygon fill="#181818" points="113.16,143.79,122.7332,141.4763,117.1241,140.7428,117.8577,135.1337,113.16,143.79" style="stroke:#181818;stroke-width:1;"/></g><!--link User to Vote on Dapps--><g class="link" data-entity-1="User" data-entity-2="Vote on Dapps" data-source-line="8" data-uid="lnk9" id="link_User_Vote on Dapps"><path d="M335.6,67.28 C319.16,89.96 297.822,119.4125 283.582,139.0525" fill="none" id="User-to-Vote on Dapps" style="stroke:#181818;stroke-width:1;"/><polygon fill="#181818" points="280.06,143.91,288.5813,138.9717,282.995,139.862,282.1046,134.2757,280.06,143.91" style="stroke:#181818;stroke-width:1;"/></g><!--link User to Burn Tokens--><g class="link" data-entity-1="User" data-entity-2="Burn Tokens" data-source-line="9" data-uid="lnk11" id="link_User_Burn Tokens"><path d="M368.4,67.28 C385.22,90.49 407.3295,120.9914 421.3795,140.3814" fill="none" id="User-to-Burn Tokens" style="stroke:#181818;stroke-width:1;"/><polygon fill="#181818" points="424.9,145.24,422.8583,135.6051,421.9662,141.1912,416.3801,140.2991,424.9,145.24" style="stroke:#181818;stroke-width:1;"/></g><!--link User to View Rankings--><g class="link" data-entity-1="User" data-entity-2="View Rankings" data-source-line="10" data-uid="lnk13" id="link_User_View Rankings"><path d="M368.35,48.4 C398.43,55.65 464.13,73.19 515,98.8 C540.26,111.52 561.7718,127.2256 578.5118,140.5956" fill="none" id="User-to-View Rankings" style="stroke:#181818;stroke-width:1;"/><polygon fill="#181818" points="583.2,144.34,578.6639,135.5979,579.2932,141.2197,573.6714,141.8489,583.2,144.34" style="stroke:#181818;stroke-width:1;"/></g><!--link DappOwner to Register Dapp--><g class="link" data-entity-1="DappOwner" data-entity-2="Register Dapp" data-source-line="12" data-uid="lnk15" id="link_DappOwner_Register Dapp"><path d="M909.95,67.92 C893.15,77.14 873.96,88.09 857,98.8 C833.74,113.49 812.9422,128.4364 795.9822,141.0664" fill="none" id="DappOwner-to-Register Dapp" style="stroke:#181818;stroke-width:1;"/><polygon fill="#181818" points="791.17,144.65,800.7774,142.4827,795.1802,141.6636,795.9993,136.0664,791.17,144.65" style="stroke:#181818;stroke-width:1;"/></g><!--link DappOwner to Cash Out Rewards--><g class="link" data-entity-1="DappOwner" data-entity-2="Cash Out Rewards" data-source-line="13" data-uid="lnk17" id="link_DappOwner_Cash Out Rewards"><path d="M954,82.15 C954,102.11 954,119.73 954,135.5" fill="none" id="DappOwner-to-Cash Out Rewards" style="stroke:#181818;stroke-width:1;"/><polygon fill="#181818" points="954,141.5,958,132.5,954,136.5,950,132.5,954,141.5" style="stroke:#181818;stroke-width:1;"/></g><!--link DappOwner to View Dapp Stats--><g class="link" data-entity-1="DappOwner" data-entity-2="View Dapp Stats" data-source-line="14" data-uid="lnk19" id="link_DappOwner_View Dapp Stats"><path d="M997.87,68.21 C1014.65,77.47 1033.87,88.36 1051,98.8 C1074.8,113.31 1096.3203,127.6688 1114.5503,140.1588" fill="none" id="DappOwner-to-View Dapp Stats" style="stroke:#181818;stroke-width:1;"/><polygon fill="#181818" points="1119.5,143.55,1114.3362,135.1634,1115.3752,140.724,1109.8146,141.763,1119.5,143.55" style="stroke:#181818;stroke-width:1;"/></g><!--link Admin to Manage Roles--><g class="link" data-entity-1="Admin" data-entity-2="Manage Roles" data-source-line="16" data-uid="lnk21" id="link_Admin_Manage Roles"><path d="M1449.34,68.9 C1434.33,78.06 1417.26,88.7 1402,98.8 C1379.21,113.88 1358.5749,128.6407 1341.5049,141.1107" fill="none" id="Admin-to-Manage Roles" style="stroke:#181818;stroke-width:1;"/><polygon fill="#181818" points="1336.66,144.65,1346.2869,142.571,1340.6974,141.7006,1341.5678,136.1111,1336.66,144.65" style="stroke:#181818;stroke-width:1;"/></g><!--link Admin to Set Parameters--><g class="link" data-entity-1="Admin" data-entity-2="Set Parameters" data-source-line="17" data-uid="lnk23" id="link_Admin_Set Parameters"><path d="M1490,82.15 C1490,102.9 1490,121.58 1490,137.32" fill="none" id="Admin-to-Set Parameters" style="stroke:#181818;stroke-width:1;"/><polygon fill="#181818" points="1490,143.32,1494,134.32,1490,138.32,1486,134.32,1490,143.32" style="stroke:#181818;stroke-width:1;"/></g><!--link Admin to View System Stats--><g class="link" data-entity-1="Admin" data-entity-2="View System Stats" data-source-line="18" data-uid="lnk25" id="link_Admin_View System Stats"><path d="M1530.75,69.72 C1545.62,78.87 1562.57,89.3 1578,98.8 C1601.99,113.57 1624.1818,127.2425 1643.8518,139.3625" fill="none" id="Admin-to-View System Stats" style="stroke:#181818;stroke-width:1;"/><polygon fill="#181818" points="1648.96,142.51,1643.3961,134.3833,1644.7032,139.8871,1639.1994,141.1942,1648.96,142.51" style="stroke:#181818;stroke-width:1;"/></g><!--SRC=[RP11JiD034NtESLNLdHHSGEa0cA7KYNGlMciC6fZHpEk8eIuEnc7LZGWpSBsi__ts7I0ATxKJ7kq8VBUWaf1UzE8yZLnB449EJWN7saOK8toWtBgsOLlgjjDsmTnx55HP66IxiZpV4roGFEHZFiIdmNS0Elr7Mvgxi9KZtduYMHr1NTg31KtJTVe_XG5BtfWMO1Tu17PC4ZdQ7gNfHUUkRxwonyelQCw6MeUARRfdnPtyTCqHdRsyT_F3Syar35gFRBJNwXXmvOYzJpji8GkF9_gBFtr3G00]--></g></svg>